<?xml version="1.0" encoding="UTF-8" standalone="no"?><svg xmlns="http://www.w3.org/2000/svg" xmlns:xlink="http://www.w3.org/1999/xlink" contentScriptType="application/ecmascript" contentStyleType="text/css" height="255px" preserveAspectRatio="none" style="width:188px;height:255px;" version="1.1" viewBox="0 0 188 255" width="188px" zoomAndPan="magnify"><defs><filter height="300%" id="f8qa6ku8uyh4g" width="300%" x="-1" y="-1"><feGaussianBlur result="blurOut" stdDeviation="2.0"/><feColorMatrix in="blurOut" result="blurOut2" type="matrix" values="0 0 0 0 0 0 0 0 0 0 0 0 0 0 0 0 0 0 .4 0"/><feOffset dx="4.0" dy="4.0" in="blurOut2" result="blurOut3"/><feBlend in="SourceGraphic" in2="blurOut3" mode="normal"/></filter></defs><g><line style="stroke: #A80036; stroke-width: 1.0; stroke-dasharray: 5.0,5.0;" x1="23" x2="23" y1="87.3319" y2="167.52"/><line style="stroke: #A80036; stroke-width: 1.0; stroke-dasharray: 5.0,5.0;" x1="163" x2="163" y1="87.3319" y2="167.52"/><text fill="#000000" font-family="sans-serif" font-size="14" lengthAdjust="spacingAndGlyphs" textLength="25" x="8" y="83.3419">You</text><ellipse cx="23.5" cy="13" fill="#FEFECE" filter="url(#f8qa6ku8uyh4g)" rx="8" ry="8" style="stroke: #A80036; stroke-width: 2.0;"/><path d="M23.5,21 L23.5,48 M10.5,29 L36.5,29 M23.5,48 L10.5,63 M23.5,48 L36.5,63 " fill="none" filter="url(#f8qa6ku8uyh4g)" style="stroke: #A80036; stroke-width: 2.0;"/><text fill="#000000" font-family="sans-serif" font-size="14" lengthAdjust="spacingAndGlyphs" textLength="25" x="8" y="179.8619">You</text><ellipse cx="23.5" cy="193.8519" fill="#FEFECE" filter="url(#f8qa6ku8uyh4g)" rx="8" ry="8" style="stroke: #A80036; stroke-width: 2.0;"/><path d="M23.5,201.8519 L23.5,228.8519 M10.5,209.8519 L36.5,209.8519 M23.5,228.8519 L10.5,243.8519 M23.5,228.8519 L36.5,243.8519 " fill="none" filter="url(#f8qa6ku8uyh4g)" style="stroke: #A80036; stroke-width: 2.0;"/><text fill="#000000" font-family="sans-serif" font-size="14" lengthAdjust="spacingAndGlyphs" textLength="31" x="145" y="83.3419">puml</text><ellipse cx="163.5" cy="54" fill="#FEFECE" filter="url(#f8qa6ku8uyh4g)" rx="12" ry="12" style="stroke: #A80036; stroke-width: 2.0;"/><polygon fill="#A80036" points="159.5,42,165.5,37,163.5,42,165.5,47,159.5,42" style="stroke: #A80036; stroke-width: 1.0;"/><text fill="#000000" font-family="sans-serif" font-size="14" lengthAdjust="spacingAndGlyphs" textLength="31" x="145" y="179.8619">puml</text><ellipse cx="163.5" cy="199.8519" fill="#FEFECE" filter="url(#f8qa6ku8uyh4g)" rx="12" ry="12" style="stroke: #A80036; stroke-width: 2.0;"/><polygon fill="#A80036" points="159.5,187.8519,165.5,182.8519,163.5,187.8519,165.5,192.8519,159.5,187.8519" style="stroke: #A80036; stroke-width: 1.0;"/><polygon fill="#A80036" points="151.5,115.4259,161.5,119.4259,151.5,123.4259,155.5,119.4259" style="stroke: #A80036; stroke-width: 1.0;"/><line style="stroke: #A80036; stroke-width: 1.0;" x1="23.5" x2="157.5" y1="119.4259" y2="119.4259"/><text fill="#000000" font-family="sans-serif" font-size="13" lengthAdjust="spacingAndGlyphs" textLength="115" x="30.5" y="113.7209">Pass example.puml</text><polygon fill="#A80036" points="34.5,145.52,24.5,149.52,34.5,153.52,30.5,149.52" style="stroke: #A80036; stroke-width: 1.0;"/><line style="stroke: #A80036; stroke-width: 1.0;" x1="28.5" x2="162.5" y1="149.52" y2="149.52"/><text fill="#000000" font-family="sans-serif" font-size="13" lengthAdjust="spacingAndGlyphs" textLength="116" x="40.5" y="143.8149">Return example.svg</text></g></svg>